<mxfile host="app.diagrams.net" agent="Mozilla/5.0 (Windows NT 10.0; Win64; x64) AppleWebKit/537.36 (KHTML, like Gecko) Chrome/131.0.0.0 Safari/537.36" version="24.9.3">
  <diagram name="1 oldal" id="6snMAdnBOzPVcwCTkAoE">
    <mxGraphModel dx="1434" dy="1907" grid="1" gridSize="10" guides="1" tooltips="1" connect="1" arrows="1" fold="1" page="1" pageScale="1" pageWidth="827" pageHeight="1169" math="0" shadow="0">
      <root>
        <mxCell id="0" />
        <mxCell id="1" parent="0" />
        <mxCell id="OGwfnmJ1fgWCDifVqoHn-2" value="Provider" style="shape=umlActor;verticalLabelPosition=bottom;verticalAlign=top;html=1;outlineConnect=0;" vertex="1" parent="1">
          <mxGeometry x="320" y="320" width="30" height="60" as="geometry" />
        </mxCell>
        <mxCell id="OGwfnmJ1fgWCDifVqoHn-3" value="Manage services" style="ellipse;whiteSpace=wrap;html=1;" vertex="1" parent="1">
          <mxGeometry x="520" y="-150" width="140" height="80" as="geometry" />
        </mxCell>
        <mxCell id="OGwfnmJ1fgWCDifVqoHn-4" value="Manage portfolio" style="ellipse;whiteSpace=wrap;html=1;" vertex="1" parent="1">
          <mxGeometry x="520" y="-50" width="140" height="80" as="geometry" />
        </mxCell>
        <mxCell id="OGwfnmJ1fgWCDifVqoHn-5" value="" style="endArrow=classic;html=1;rounded=0;entryX=0;entryY=0.5;entryDx=0;entryDy=0;" edge="1" parent="1" target="OGwfnmJ1fgWCDifVqoHn-4">
          <mxGeometry width="50" height="50" relative="1" as="geometry">
            <mxPoint x="370" y="340" as="sourcePoint" />
            <mxPoint x="480" y="260" as="targetPoint" />
          </mxGeometry>
        </mxCell>
        <mxCell id="OGwfnmJ1fgWCDifVqoHn-6" value="Manage availability" style="ellipse;whiteSpace=wrap;html=1;" vertex="1" parent="1">
          <mxGeometry x="520" y="50" width="140" height="80" as="geometry" />
        </mxCell>
        <mxCell id="OGwfnmJ1fgWCDifVqoHn-7" value="" style="endArrow=classic;html=1;rounded=0;entryX=0;entryY=0.5;entryDx=0;entryDy=0;" edge="1" parent="1" target="OGwfnmJ1fgWCDifVqoHn-6">
          <mxGeometry width="50" height="50" relative="1" as="geometry">
            <mxPoint x="370" y="340" as="sourcePoint" />
            <mxPoint x="480" y="350" as="targetPoint" />
          </mxGeometry>
        </mxCell>
        <mxCell id="OGwfnmJ1fgWCDifVqoHn-8" value="" style="endArrow=classic;html=1;rounded=0;entryX=0;entryY=0.5;entryDx=0;entryDy=0;" edge="1" parent="1" target="OGwfnmJ1fgWCDifVqoHn-12">
          <mxGeometry width="50" height="50" relative="1" as="geometry">
            <mxPoint x="370" y="350" as="sourcePoint" />
            <mxPoint x="480" y="530" as="targetPoint" />
          </mxGeometry>
        </mxCell>
        <mxCell id="OGwfnmJ1fgWCDifVqoHn-9" value="User" style="shape=umlActor;verticalLabelPosition=bottom;verticalAlign=top;html=1;outlineConnect=0;" vertex="1" parent="1">
          <mxGeometry x="940" y="470" width="30" height="60" as="geometry" />
        </mxCell>
        <mxCell id="OGwfnmJ1fgWCDifVqoHn-10" value="Create rules for availability" style="ellipse;whiteSpace=wrap;html=1;" vertex="1" parent="1">
          <mxGeometry x="520" y="150" width="140" height="80" as="geometry" />
        </mxCell>
        <mxCell id="OGwfnmJ1fgWCDifVqoHn-11" value="" style="endArrow=classic;html=1;rounded=0;entryX=0;entryY=0.5;entryDx=0;entryDy=0;" edge="1" parent="1" target="OGwfnmJ1fgWCDifVqoHn-10">
          <mxGeometry width="50" height="50" relative="1" as="geometry">
            <mxPoint x="370" y="350" as="sourcePoint" />
            <mxPoint x="480" y="440" as="targetPoint" />
          </mxGeometry>
        </mxCell>
        <mxCell id="OGwfnmJ1fgWCDifVqoHn-12" value="Reveive e-mail report" style="ellipse;whiteSpace=wrap;html=1;" vertex="1" parent="1">
          <mxGeometry x="520" y="254.5" width="140" height="80" as="geometry" />
        </mxCell>
        <mxCell id="OGwfnmJ1fgWCDifVqoHn-13" value="" style="endArrow=classic;html=1;rounded=0;entryX=0;entryY=0.5;entryDx=0;entryDy=0;" edge="1" parent="1" target="OGwfnmJ1fgWCDifVqoHn-3">
          <mxGeometry width="50" height="50" relative="1" as="geometry">
            <mxPoint x="370" y="330" as="sourcePoint" />
            <mxPoint x="480" y="160" as="targetPoint" />
          </mxGeometry>
        </mxCell>
        <mxCell id="OGwfnmJ1fgWCDifVqoHn-16" value="Manage profile" style="ellipse;whiteSpace=wrap;html=1;" vertex="1" parent="1">
          <mxGeometry x="520" y="350" width="140" height="80" as="geometry" />
        </mxCell>
        <mxCell id="OGwfnmJ1fgWCDifVqoHn-17" value="Book appointment" style="ellipse;whiteSpace=wrap;html=1;" vertex="1" parent="1">
          <mxGeometry x="520" y="450" width="140" height="80" as="geometry" />
        </mxCell>
        <mxCell id="OGwfnmJ1fgWCDifVqoHn-18" value="" style="endArrow=classic;html=1;rounded=0;entryX=0;entryY=0.5;entryDx=0;entryDy=0;" edge="1" parent="1" target="OGwfnmJ1fgWCDifVqoHn-16">
          <mxGeometry width="50" height="50" relative="1" as="geometry">
            <mxPoint x="370" y="360" as="sourcePoint" />
            <mxPoint x="480" y="-250" as="targetPoint" />
          </mxGeometry>
        </mxCell>
        <mxCell id="OGwfnmJ1fgWCDifVqoHn-19" value="Manage appointments" style="ellipse;whiteSpace=wrap;html=1;" vertex="1" parent="1">
          <mxGeometry x="520" y="550" width="140" height="80" as="geometry" />
        </mxCell>
        <mxCell id="OGwfnmJ1fgWCDifVqoHn-20" value="" style="endArrow=classic;html=1;rounded=0;entryX=0;entryY=0.5;entryDx=0;entryDy=0;" edge="1" parent="1" target="OGwfnmJ1fgWCDifVqoHn-17">
          <mxGeometry width="50" height="50" relative="1" as="geometry">
            <mxPoint x="370" y="360" as="sourcePoint" />
            <mxPoint x="480" y="-140" as="targetPoint" />
          </mxGeometry>
        </mxCell>
        <mxCell id="OGwfnmJ1fgWCDifVqoHn-21" value="" style="endArrow=classic;html=1;rounded=0;entryX=0;entryY=0.5;entryDx=0;entryDy=0;" edge="1" parent="1" target="OGwfnmJ1fgWCDifVqoHn-23">
          <mxGeometry width="50" height="50" relative="1" as="geometry">
            <mxPoint x="370" y="380" as="sourcePoint" />
            <mxPoint x="480" y="30" as="targetPoint" />
          </mxGeometry>
        </mxCell>
        <mxCell id="OGwfnmJ1fgWCDifVqoHn-23" value="Receive e-mail notifications" style="ellipse;whiteSpace=wrap;html=1;" vertex="1" parent="1">
          <mxGeometry x="520" y="650" width="140" height="80" as="geometry" />
        </mxCell>
        <mxCell id="OGwfnmJ1fgWCDifVqoHn-24" value="" style="endArrow=classic;html=1;rounded=0;entryX=0;entryY=0.5;entryDx=0;entryDy=0;" edge="1" parent="1" target="OGwfnmJ1fgWCDifVqoHn-19">
          <mxGeometry width="50" height="50" relative="1" as="geometry">
            <mxPoint x="370" y="370" as="sourcePoint" />
            <mxPoint x="480" y="-70" as="targetPoint" />
          </mxGeometry>
        </mxCell>
        <mxCell id="OGwfnmJ1fgWCDifVqoHn-26" value="List / Search providers" style="ellipse;whiteSpace=wrap;html=1;" vertex="1" parent="1">
          <mxGeometry x="680" y="80" width="140" height="80" as="geometry" />
        </mxCell>
        <mxCell id="OGwfnmJ1fgWCDifVqoHn-27" value="See providers&#39; service details" style="ellipse;whiteSpace=wrap;html=1;" vertex="1" parent="1">
          <mxGeometry x="680" y="180" width="140" height="80" as="geometry" />
        </mxCell>
        <mxCell id="OGwfnmJ1fgWCDifVqoHn-29" value="See providers&#39; portfolio" style="ellipse;whiteSpace=wrap;html=1;" vertex="1" parent="1">
          <mxGeometry x="680" y="280" width="140" height="80" as="geometry" />
        </mxCell>
        <mxCell id="OGwfnmJ1fgWCDifVqoHn-33" value="User not&amp;nbsp;&lt;div&gt;logged in&lt;/div&gt;" style="shape=umlActor;verticalLabelPosition=bottom;verticalAlign=top;html=1;outlineConnect=0;" vertex="1" parent="1">
          <mxGeometry x="940" y="190" width="30" height="60" as="geometry" />
        </mxCell>
        <mxCell id="OGwfnmJ1fgWCDifVqoHn-39" value="" style="endArrow=classic;html=1;rounded=0;entryX=1;entryY=0.5;entryDx=0;entryDy=0;" edge="1" parent="1" target="OGwfnmJ1fgWCDifVqoHn-16">
          <mxGeometry width="50" height="50" relative="1" as="geometry">
            <mxPoint x="930" y="480" as="sourcePoint" />
            <mxPoint x="967" y="-120" as="targetPoint" />
          </mxGeometry>
        </mxCell>
        <mxCell id="OGwfnmJ1fgWCDifVqoHn-40" value="" style="endArrow=classic;html=1;rounded=0;entryX=1;entryY=0.5;entryDx=0;entryDy=0;" edge="1" parent="1" target="OGwfnmJ1fgWCDifVqoHn-17">
          <mxGeometry width="50" height="50" relative="1" as="geometry">
            <mxPoint x="930" y="490" as="sourcePoint" />
            <mxPoint x="660" y="-90" as="targetPoint" />
          </mxGeometry>
        </mxCell>
        <mxCell id="OGwfnmJ1fgWCDifVqoHn-41" value="" style="endArrow=classic;html=1;rounded=0;entryX=1;entryY=0.5;entryDx=0;entryDy=0;" edge="1" parent="1" target="OGwfnmJ1fgWCDifVqoHn-19">
          <mxGeometry width="50" height="50" relative="1" as="geometry">
            <mxPoint x="930" y="500" as="sourcePoint" />
            <mxPoint x="670" y="-80" as="targetPoint" />
          </mxGeometry>
        </mxCell>
        <mxCell id="OGwfnmJ1fgWCDifVqoHn-42" value="" style="endArrow=classic;html=1;rounded=0;entryX=1;entryY=0.5;entryDx=0;entryDy=0;" edge="1" parent="1" target="OGwfnmJ1fgWCDifVqoHn-23">
          <mxGeometry width="50" height="50" relative="1" as="geometry">
            <mxPoint x="930" y="510" as="sourcePoint" />
            <mxPoint x="680" y="-70" as="targetPoint" />
          </mxGeometry>
        </mxCell>
        <mxCell id="OGwfnmJ1fgWCDifVqoHn-43" value="" style="endArrow=classic;html=1;rounded=0;entryX=1;entryY=0.5;entryDx=0;entryDy=0;" edge="1" parent="1" target="OGwfnmJ1fgWCDifVqoHn-26">
          <mxGeometry width="50" height="50" relative="1" as="geometry">
            <mxPoint x="920" y="210" as="sourcePoint" />
            <mxPoint x="690" y="-240" as="targetPoint" />
          </mxGeometry>
        </mxCell>
        <mxCell id="OGwfnmJ1fgWCDifVqoHn-44" value="" style="endArrow=classic;html=1;rounded=0;entryX=1;entryY=0.5;entryDx=0;entryDy=0;" edge="1" parent="1" target="OGwfnmJ1fgWCDifVqoHn-27">
          <mxGeometry width="50" height="50" relative="1" as="geometry">
            <mxPoint x="920" y="220" as="sourcePoint" />
            <mxPoint x="700" y="-230" as="targetPoint" />
          </mxGeometry>
        </mxCell>
        <mxCell id="OGwfnmJ1fgWCDifVqoHn-45" value="" style="endArrow=classic;html=1;rounded=0;entryX=1;entryY=0.5;entryDx=0;entryDy=0;" edge="1" parent="1" target="OGwfnmJ1fgWCDifVqoHn-29">
          <mxGeometry width="50" height="50" relative="1" as="geometry">
            <mxPoint x="920" y="230" as="sourcePoint" />
            <mxPoint x="710" y="-220" as="targetPoint" />
          </mxGeometry>
        </mxCell>
        <mxCell id="OGwfnmJ1fgWCDifVqoHn-46" style="edgeStyle=orthogonalEdgeStyle;rounded=0;orthogonalLoop=1;jettySize=auto;html=1;endArrow=block;endFill=0;endSize=14;" edge="1" parent="1">
          <mxGeometry relative="1" as="geometry">
            <mxPoint x="954.5" y="300" as="targetPoint" />
            <mxPoint x="955" y="460" as="sourcePoint" />
          </mxGeometry>
        </mxCell>
      </root>
    </mxGraphModel>
  </diagram>
</mxfile>
